<svg id="Layer_1" data-name="Layer 1" xmlns="http://www.w3.org/2000/svg" viewBox="0 0 200 200"><title>logo-black</title><path d="M84.13,126.07l1.39-1.39c12.75-12.75,11.21-35-3.43-49.68l-2-2A40.31,40.31,0,0,0,54.7,61c-9.47-.69-18.1,2.33-24.29,8.53L0,100l24.76,24.76,26.4,8.85.78.26-9,9L100,200l30.74-30.74L111,162.64,98.63,175l-31.7-31.72L70.21,140l51,17.09,16.29,5.45,13.93-13.93L133,142.44Zm-13-11.46-5.32,5.32L32.38,108.72,24,100.38,40.49,83.92c7.18-7.18,19.9-6.13,28.36,2.33a23.57,23.57,0,0,1,7,14.83,17,17,0,0,1-4.67,13.54Z"/><path d="M175.24,75.24l-26.4-8.85-.78-.26,9-9L100,0,69.26,30.74,89,37.36,101.37,25l31.69,31.69L129.79,60l-51-17.09L62.54,37.46,48.62,51.38l18.44,6.17,48.81,16.37-1.39,1.39c-12.75,12.75-11.21,35,3.43,49.68l2,2a40.31,40.31,0,0,0,25.39,12q1.34.1,2.65.1a30.09,30.09,0,0,0,21.64-8.62L200,100ZM176,99.62l-16.45,16.45c-7.18,7.18-19.9,6.13-28.36-2.33a23.57,23.57,0,0,1-7-14.83,17,17,0,0,1,4.67-13.53l5.32-5.32,33.49,11.21Z"/></svg>