<?xml version="1.0" encoding="utf-8"?>
<!-- Generator: Adobe Illustrator 25.0.0, SVG Export Plug-In . SVG Version: 6.00 Build 0)  -->
<svg version="1.1" id="Layer_1" xmlns="http://www.w3.org/2000/svg" xmlns:xlink="http://www.w3.org/1999/xlink" x="0px" y="0px"
	 viewBox="0 0 101 61" style="enable-background:new 0 0 101 61;" xml:space="preserve">
<style type="text/css">
	.st0{fill:#06B6D4;}
</style>
<path id="Vector" class="st0" d="M50.8,0.5c-13.3,0-21.7,6.7-25,20c5-6.7,10.8-9.2,17.5-7.5c3.8,1,6.5,3.7,9.5,6.8
	c4.9,5,10.6,10.7,23,10.7c13.3,0,21.7-6.7,25-20c-5,6.7-10.8,9.2-17.5,7.5c-3.8-1-6.5-3.7-9.5-6.8C68.9,6.3,63.2,0.5,50.8,0.5z
	 M25.8,30.5c-13.3,0-21.7,6.7-25,20c5-6.7,10.8-9.2,17.5-7.5c3.8,1,6.5,3.7,9.5,6.8c4.9,5,10.6,10.7,23,10.7c13.3,0,21.7-6.7,25-20
	c-5,6.7-10.8,9.2-17.5,7.5c-3.8-0.9-6.5-3.7-9.5-6.8C43.9,36.2,38.2,30.5,25.8,30.5z"/>
</svg>
