<svg width="101" height="76" viewBox="0 0 101 76" fill="none" xmlns="http://www.w3.org/2000/svg">
<path d="M86.2123 43.9112C82.7236 43.9295 79.6916 44.7697 77.1527 46.0118C76.2211 44.167 75.2896 42.5231 75.1252 41.3176C74.9426 39.9111 74.7234 39.0527 74.9426 37.3722C75.1618 35.6918 76.1481 33.2991 76.1298 33.1164C76.1116 32.9337 75.9106 32.0753 73.9014 32.057C71.8923 32.0387 70.157 32.4406 69.9561 32.9703C69.7552 33.5 69.3716 34.7055 69.1159 35.9475C68.7689 37.7741 65.0975 44.2948 62.997 47.7104C62.3212 46.3771 61.7367 45.2081 61.6088 44.2766C61.4262 42.8701 61.207 42.0116 61.4262 40.3312C61.6454 38.6508 62.6317 36.258 62.6134 36.0754C62.5952 35.8927 62.3943 35.0343 60.3851 35.016C58.3759 34.9977 56.6407 35.3996 56.4397 35.9293C56.2388 36.459 56.0196 37.701 55.5995 38.9065C55.1794 40.112 50.3026 50.9982 49.024 53.8111C48.3664 55.254 47.8002 56.4048 47.3984 57.1902C47.3984 57.1902 47.3801 57.245 47.3253 57.3363C46.9783 58.0121 46.7773 58.3774 46.7773 58.3774C46.7773 58.3774 46.7773 58.3774 46.7773 58.3957C46.5034 58.8889 46.2111 59.3455 46.065 59.3455C45.9554 59.3455 45.7545 58.0304 46.1015 56.2404C46.8321 52.4594 48.5674 46.578 48.5491 46.3771C48.5491 46.2675 48.8779 45.2446 47.4166 44.7149C45.9919 44.1852 45.4805 45.062 45.3526 45.062C45.2248 45.062 45.1335 45.3725 45.1335 45.3725C45.1335 45.3725 46.7225 38.7604 42.1014 38.7604C39.2155 38.7604 35.2336 41.9203 33.261 44.7697C32.0189 45.4455 29.3704 46.8885 26.5393 48.4411C25.4616 49.0438 24.3475 49.6466 23.3063 50.2128C23.2333 50.1397 23.1602 50.0484 23.0871 49.9753C17.4979 44.0026 7.15972 39.7833 7.59809 31.7648C7.76248 28.8423 8.76707 21.1708 27.4526 11.8555C42.832 4.27535 55.0698 6.37587 57.1886 11.0335C60.2207 17.6821 50.6313 30.0295 34.7405 31.8196C28.6763 32.4954 25.4982 30.1574 24.6945 29.2807C23.8543 28.3674 23.7264 28.3126 23.4159 28.4953C22.9045 28.7692 23.2333 29.5912 23.4159 30.0661C23.8908 31.3081 25.8452 33.5 29.1512 34.5776C32.0737 35.5274 39.1789 36.0571 47.7819 32.7328C57.4078 29.0067 64.9331 18.6502 62.723 9.97415C60.5129 1.17023 45.9006 -1.73396 32.0737 3.17943C23.8543 6.10189 14.9408 10.7048 8.52962 16.6958C0.912957 23.8193 -0.292557 30.0113 0.200608 32.605C1.97235 41.8107 14.6668 47.8018 19.7446 52.2403C19.4889 52.3864 19.2514 52.5142 19.0505 52.6238C16.5116 53.8841 6.83094 58.9437 4.41991 64.2954C1.6801 70.3595 4.85828 74.7067 6.9588 75.2912C13.4795 77.0994 20.1829 73.8482 23.7812 68.4782C27.3795 63.1082 26.9411 56.1308 25.279 52.9343C25.2607 52.8978 25.2425 52.8613 25.2059 52.8247C25.8635 52.4412 26.5393 52.0393 27.1968 51.6558C28.4937 50.8886 29.7723 50.1763 30.8682 49.5918C30.2472 51.2905 29.7905 53.3179 29.5714 56.2404C29.2974 59.6743 30.7038 64.131 32.5486 65.8845C33.3706 66.6516 34.3386 66.6699 34.9596 66.6699C37.115 66.6699 38.083 64.8799 39.1607 62.7611C40.4758 60.1674 41.663 57.1536 41.663 57.1536C41.663 57.1536 40.1835 65.3 44.2019 65.3C45.6632 65.3 47.1427 63.4004 47.8002 62.4323C47.8002 62.4506 47.8002 62.4506 47.8002 62.4506C47.8002 62.4506 47.8367 62.3958 47.9098 62.268C48.0559 62.0305 48.1473 61.8844 48.1473 61.8844C48.1473 61.8844 48.1473 61.8661 48.1473 61.8479C48.7317 60.825 50.0469 58.5053 52.0012 54.6513C54.5219 49.6831 56.9512 43.4729 56.9512 43.4729C56.9512 43.4729 57.1703 44.9889 57.9192 47.5095C58.3576 48.989 59.2709 50.6146 60.0015 52.1855C59.417 53.0074 59.0517 53.464 59.0517 53.464C59.0517 53.464 59.0517 53.464 59.07 53.4823C58.5951 54.1033 58.0836 54.7791 57.5174 55.4367C55.5265 57.8112 53.152 60.5327 52.8232 61.3182C52.4396 62.2497 52.5309 62.9255 53.2616 63.4735C53.7913 63.8753 54.7411 63.9301 55.7091 63.8753C57.4991 63.7474 58.7594 63.3091 59.3805 63.0351C60.3485 62.6881 61.481 62.1584 62.5404 61.373C64.4948 59.93 65.682 57.866 65.5724 55.1445C65.5176 53.6467 65.0245 52.1489 64.4217 50.7425C64.6044 50.4868 64.7688 50.2311 64.9514 49.9753C68.0383 45.4638 70.431 40.5139 70.431 40.5139C70.431 40.5139 70.6502 42.0299 71.3991 44.5505C71.7644 45.8291 72.5133 47.2173 73.1708 48.5689C70.2666 50.9251 68.4766 53.665 67.8373 55.455C66.6866 58.7793 67.5816 60.277 69.2803 60.6241C70.0474 60.7885 71.1434 60.4231 71.947 60.0761C72.9699 59.7473 74.1754 59.1811 75.3261 58.3409C77.2805 56.8979 79.1619 54.8887 79.0523 52.1672C78.9975 50.9252 78.6687 49.7014 78.2121 48.5141C80.6779 47.4913 83.8561 46.925 87.911 47.3999C96.6053 48.4228 98.3223 53.8476 97.9935 56.1308C97.6647 58.414 95.8382 59.656 95.2354 60.0396C94.6327 60.4231 94.4317 60.551 94.4865 60.825C94.5596 61.2268 94.8519 61.2086 95.3633 61.1355C96.0756 61.0076 99.9296 59.2907 100.094 55.0897C100.368 49.7196 95.2537 43.8564 86.2123 43.9112ZM19.1418 66.5238C16.2559 69.6654 12.2375 70.8527 10.5023 69.8481C8.63922 68.7704 9.36983 64.131 12.9133 60.8067C15.0686 58.7793 17.845 56.8979 19.6898 55.7472C20.1099 55.4915 20.7309 55.1262 21.4798 54.6696C21.6076 54.5965 21.6807 54.56 21.6807 54.56C21.8268 54.4686 21.9729 54.3773 22.1191 54.286C23.4159 59.035 22.1739 63.2178 19.1418 66.5238ZM40.147 52.2403C39.1424 54.6878 37.0419 60.9528 35.7633 60.6058C34.6674 60.3136 33.9916 55.5646 35.5441 50.8704C36.3295 48.5141 37.9917 45.7013 38.9598 44.6053C40.5306 42.8518 42.2658 42.2674 42.6859 42.9797C43.2156 43.9112 40.768 50.706 40.147 52.2403ZM57.4809 60.5327C57.0608 60.7519 56.6589 60.898 56.4763 60.7885C56.3484 60.7154 56.6589 60.4231 56.6589 60.4231C56.6589 60.4231 58.8325 58.0852 59.691 57.0258C60.1841 56.4048 60.7686 55.6741 61.3897 54.8522C61.3897 54.9253 61.3897 55.0166 61.3897 55.0897C61.3897 57.8843 58.6864 59.7656 57.4809 60.5327ZM70.8511 57.4824C70.5406 57.2632 70.5954 56.5326 71.6365 54.2495C72.0384 53.3544 72.9882 51.8567 74.6138 50.4137C74.7964 50.9982 74.9243 51.5644 74.906 52.0941C74.8878 55.6194 72.3671 56.9345 70.8511 57.4824Z" fill="#CD6799"/>
</svg>
