<svg width="101" height="101" viewBox="0 0 101 101" fill="none" xmlns="http://www.w3.org/2000/svg">
<path d="M96.441 100.771H4.18497C2.05874 100.771 0.312988 99.0252 0.312988 96.899V4.66531C0.312988 2.53908 2.05874 0.793335 4.18497 0.793335H96.441C98.5672 0.793335 100.313 2.53908 100.313 4.66531V96.9214C100.291 99.0476 98.5672 100.771 96.441 100.771Z" fill="#4D4D4E"/>
<path d="M23.3658 30.9858L75.6935 14.3788C75.6935 14.3788 79.4088 12.4316 78.5136 16.035L78.6478 32.0377C78.6478 32.0377 79.2969 34.3878 76.074 34.9697L54.8117 41.617L23.3658 30.9858Z" fill="#F89820"/>
<path d="M23.3658 30.9858C23.3658 30.9858 21.3067 31.4782 21.911 34.992L21.7991 50.4128C21.7991 50.4128 21.6201 52.36 25.313 53.1433L77.1707 69.8399C77.1707 69.8399 78.9164 70.5337 78.715 68.3851L78.7374 51.1962C78.7374 51.1962 79.2297 49.428 76.0068 48.2642L54.8117 41.6169L23.3658 30.9858Z" fill="#F89820"/>
<path d="M46.2173 59.8578L24.1492 66.5946C24.1492 66.5946 21.4858 66.6841 21.7992 71.6752C22.1125 76.6662 21.7768 86.7154 21.7768 86.7154C21.7768 86.7154 22.0006 88.5731 24.5521 87.4988L76.8798 70.8023C76.8798 70.8023 78.7374 70.3323 77.1707 69.8175C75.604 69.3251 46.2173 59.8578 46.2173 59.8578Z" fill="url(#paint0_linear_301_8414)"/>
<defs>
<linearGradient id="paint0_linear_301_8414" x1="24.8381" y1="77.57" x2="77.7708" y2="59.2557" gradientUnits="userSpaceOnUse">
<stop offset="0.233" stop-color="#F89822"/>
<stop offset="1" stop-color="#C27818"/>
</linearGradient>
</defs>
</svg>
