<svg fill="none" height="24" width="132" xmlns="http://www.w3.org/2000/svg"><path d="m8.156 0h-8.156v8h8.156z" fill="#23376b"/><path d="m16.312 0h-8.156v8h8.156z" fill="#0071af"/><path d="m24.468 16h-8.156v8h8.156z" fill="#5b185e"/><path d="m16.312 16h-8.156v8h8.156z" fill="#ff574c"/><path d="m16.312 0v16l8.156-8v-8z" fill="#3cf"/><path d="m0 16v8h8.156v-16z" fill="#ffbf25"/><path d="m51.48 12.117c0-1.611-1.026-3.007-2.825-3.007-1.8 0-2.803 1.396-2.803 3.007 0 1.632 1.003 3.028 2.803 3.028 1.799 0 2.824-1.396 2.824-3.028zm50.617 0c0-1.611-1.026-3.007-2.825-3.007-1.8 0-2.802 1.396-2.802 3.007 0 1.632 1.002 3.028 2.802 3.028 1.799 0 2.825-1.396 2.825-3.028zm-38.063 0c0-1.611-1.025-3.007-2.824-3.007-1.8 0-2.803 1.396-2.803 3.007 0 1.632 1.003 3.028 2.803 3.028 1.799 0 2.824-1.396 2.824-3.028zm-21.188 0c0-2.942 2.187-5.434 5.809-5.434 3.644 0 5.831 2.492 5.831 5.434 0 2.963-2.187 5.454-5.831 5.454-3.622 0-5.809-2.49-5.809-5.454zm12.555 0c0-2.942 2.187-5.434 5.809-5.434 3.644 0 5.831 2.492 5.831 5.434 0 2.963-2.187 5.454-5.831 5.454-3.622 0-5.809-2.49-5.809-5.454zm26.61 5.197v-6.55c0-.967-.456-1.654-1.64-1.654-1.025 0-1.868.645-2.277 1.203v7.001h-2.916v-6.55c0-.967-.456-1.654-1.64-1.654-1.003 0-1.846.645-2.278 1.224v6.98h-2.894v-10.374h2.894v1.354c.455-.623 1.913-1.611 3.599-1.611 1.617 0 2.642.709 3.052 1.89.638-.945 2.096-1.89 3.782-1.89 2.027 0 3.234 1.01 3.234 3.136v7.495h-2.917zm5.435 0v-10.932c0-2.255 1.55-3.608 3.713-3.608.82 0 1.571.172 2.095.43l-.592 1.933c-.25-.15-.592-.215-.934-.215-.82 0-1.366.515-1.366 1.504v.767h2.232v2.383h-2.232v7.738zm6.017-5.197c0-2.942 2.187-5.434 5.81-5.434 3.644 0 5.831 2.492 5.831 5.434 0 2.963-2.187 5.454-5.832 5.454-3.622 0-5.809-2.49-5.809-5.454zm13.092 5.197v-10.374h2.893v1.418c.774-.923 2.142-1.675 3.508-1.675v2.663a4.107 4.107 0 0 0 -.797-.064c-.957 0-2.233.515-2.711 1.181v6.851zm7.926-2.577v-10.63h2.916v2.833h2.232v2.384h-2.232v4.683c0 .644.365 1.138 1.003 1.138.432 0 .842-.15 1.002-.301l.615 2.062c-.434.366-1.208.665-2.415.665-2.027 0-3.121-.987-3.121-2.834zm14.626 2.577v-6.314c0-1.44-.797-1.89-2.05-1.89-1.117 0-2.005.601-2.506 1.224v6.98h-2.893v-14.324h2.893v5.305c.706-.795 2.073-1.611 3.872-1.611 2.415 0 3.577 1.246 3.577 3.265v7.366h-2.893zm-96.107-.001v-2.048l4.986-5.973h-4.986v-2.393h8.92v1.984l-5.055 6.037h5.146v2.393z" fill="#23376b"/></svg>